<svg width="36" height="36" viewBox="0 0 36 36" fill="none" xmlns="http://www.w3.org/2000/svg">
<path d="M7.36711 13.0807H2.44389C1.04239 13.0807 0.000244141 14.1588 0.000244141 15.5243V20.4116C0.000244141 21.8131 1.07832 22.8553 2.44389 22.8553H7.33117C8.73268 22.8553 9.77482 21.7772 9.77482 20.4116V15.5243C9.81075 14.1228 8.73268 13.0807 7.36711 13.0807Z" fill="#55198A"/>
<path d="M7.36687 0H2.44364C1.07808 0 0 1.07808 0 2.44364V7.33093C0 8.73243 1.07808 9.77457 2.44364 9.77457H7.33093C8.73243 9.77457 9.77457 8.6965 9.77457 7.33093V2.44364C9.81051 1.07808 8.73243 0 7.36687 0Z" fill="#55198A"/>
<path d="M20.4117 26.1254H15.5245C14.123 26.1254 13.0808 27.2035 13.0808 28.5691V33.4564C13.0808 34.8579 14.1589 35.9 15.5245 35.9H20.4117C21.8132 35.9 22.8554 34.8219 22.8554 33.4564V28.5691C22.8554 27.2035 21.8132 26.1254 20.4117 26.1254Z" fill="#55198A"/>
<path d="M7.36711 26.1254H2.44389C1.04239 26.1254 0.000244141 27.2035 0.000244141 28.5691V33.4564C0.000244141 34.8579 1.07832 35.9 2.44389 35.9H7.33117C8.73268 35.9 9.77482 34.8219 9.77482 33.4564V28.5691C9.81075 27.2035 8.73268 26.1254 7.36711 26.1254Z" fill="#55198A"/>
<path d="M33.4925 0H28.5693C27.1678 0 26.1256 1.07808 26.1256 2.44364V7.33093C26.1256 8.73243 27.2037 9.77457 28.5693 9.77457H33.4565C34.858 9.77457 35.9002 8.6965 35.9002 7.33093V2.44364C35.9361 1.07808 34.858 0 33.4925 0Z" fill="#55198A"/>
<path d="M33.4925 13.0807H28.5693C27.1678 13.0807 26.1256 14.1588 26.1256 15.5243V20.4116C26.1256 21.8131 27.2037 22.8553 28.5693 22.8553H33.4565C34.858 22.8553 35.9002 21.7772 35.9002 20.4116V15.5243C35.9361 14.1228 34.858 13.0807 33.4925 13.0807Z" fill="#55198A"/>
<path d="M33.4925 26.1254H28.5693C27.1678 26.1254 26.1256 27.2035 26.1256 28.5691V33.4564C26.1256 34.8579 27.2037 35.9 28.5693 35.9H33.4565C34.858 35.9 35.9002 34.8219 35.9002 33.4564V28.5691C35.9361 27.2035 34.858 26.1254 33.4925 26.1254Z" fill="#55198A"/>
<path d="M20.4117 0H15.5245C14.123 0 13.0808 1.07808 13.0808 2.44364V7.33093C13.0808 8.73243 14.1589 9.77457 15.5245 9.77457H20.4117C21.8132 9.77457 22.8554 8.6965 22.8554 7.33093V2.44364C22.8554 1.07808 21.8132 0 20.4117 0Z" fill="#55198A"/>
<path d="M20.4117 13.0807H15.5245C14.123 13.0807 13.0808 14.1588 13.0808 15.5243V20.4116C13.0808 21.8131 14.1589 22.8553 15.5245 22.8553H20.4117C21.8132 22.8553 22.8554 21.7772 22.8554 20.4116V15.5243C22.8554 14.1228 21.8132 13.0807 20.4117 13.0807Z" fill="#55198A"/>
</svg>
