<svg width="137" height="103" viewBox="0 0 137 103" fill="none" xmlns="http://www.w3.org/2000/svg">
<path opacity="0.7" d="M132.758 20.1592C129.023 8.38625 123.956 5.93394 110.291 3.31161C100.89 1.50723 84.2111 0 68.5 0C52.7889 0 36.1097 1.50723 26.7085 3.31161C13.044 5.93394 7.97655 8.38625 4.2418 20.1592C1.24849 29.5992 0 39.7179 0 51.5C0 63.2821 1.24849 73.4007 4.2418 82.8408C7.97655 94.6137 13.044 97.0661 26.7085 99.6884C36.1082 101.493 52.7889 103 68.5 103C84.2111 103 100.89 101.493 110.291 99.6884C123.956 97.0661 129.023 94.6137 132.758 82.8408C135.752 73.4007 137 63.2821 137 51.5C137 39.7179 135.752 29.5992 132.758 20.1592ZM94.9419 54.3261L55.0515 79.9336C52.6296 81.4883 50.6489 80.4054 50.6489 77.5288V25.4712C50.6489 22.5931 52.6296 21.5117 55.0515 23.0664L94.9419 48.6739C97.3639 50.2287 97.3639 52.7713 94.9419 54.3261Z" fill="white"/>
</svg>
