<svg width="17" height="17" viewBox="0 0 17 17" fill="none" xmlns="http://www.w3.org/2000/svg">
<path d="M14.2327 16.524L8.5 10.7931L2.76733 16.524C2.61712 16.6749 2.43858 16.7946 2.24198 16.8763C2.04538 16.9579 1.83457 17 1.62167 17C1.40877 17 1.19797 16.9579 1.00137 16.8763C0.804761 16.7946 0.626227 16.6749 0.476013 16.524C0.325142 16.3738 0.205427 16.1952 0.123739 15.9986C0.042051 15.802 0 15.5912 0 15.3783C0 15.1654 0.042051 14.9546 0.123739 14.758C0.205427 14.5614 0.325142 14.3829 0.476013 14.2327L6.20693 8.5L0.476013 2.76733C0.325142 2.61712 0.205427 2.43858 0.123739 2.24198C0.042051 2.04538 0 1.83457 0 1.62167C0 1.40877 0.042051 1.19797 0.123739 1.00137C0.205427 0.804761 0.325142 0.626227 0.476013 0.476013C0.626227 0.325142 0.804761 0.205427 1.00137 0.123739C1.19797 0.042051 1.40877 0 1.62167 0C1.83457 0 2.04538 0.042051 2.24198 0.123739C2.43858 0.205427 2.61712 0.325142 2.76733 0.476013L8.5 6.20693L14.2327 0.476013C14.3829 0.325142 14.5614 0.205427 14.758 0.123739C14.9546 0.042051 15.1654 0 15.3783 0C15.5912 0 15.802 0.042051 15.9986 0.123739C16.1952 0.205427 16.3738 0.325142 16.524 0.476013C16.6749 0.626227 16.7946 0.804761 16.8763 1.00137C16.9579 1.19797 17 1.40877 17 1.62167C17 1.83457 16.9579 2.04538 16.8763 2.24198C16.7946 2.43858 16.6749 2.61712 16.524 2.76733L10.7931 8.5L16.524 14.2327C16.6749 14.3829 16.7946 14.5614 16.8763 14.758C16.9579 14.9546 17 15.1654 17 15.3783C17 15.5912 16.9579 15.802 16.8763 15.9986C16.7946 16.1952 16.6749 16.3738 16.524 16.524C16.3738 16.6749 16.1952 16.7946 15.9986 16.8763C15.802 16.9579 15.5912 17 15.3783 17C15.1654 17 14.9546 16.9579 14.758 16.8763C14.5614 16.7946 14.3829 16.6749 14.2327 16.524Z" fill="#FF6252"/>
</svg>
